There are two versions to choose from.  																								The original MP4 with AAC audio and my remux with AC3 and in MKV format.																																																		Enjoy and please share.																																																																								TTLTTLTTLTTLTTLTTLTTLTTLTTLTTLTTLTTLTTLTTLTTLTTLTTLTTLTTLTTLTTLTTLTTLTTL																																																																																2nd_WATCH_S02_E05_Falling_Skies_AAC_TTL
Format                           : MPEG-4
Format profile                   : Base Media / Version 2
Codec ID                         : mp42
File size                        : 105 MiB
Duration                         : 11mn 19s
Overall bit rate                 : 1 296 Kbps
Encoded date                     : UTC 2012-06-28 21:18:54
Tagged date                      : UTC 2012-06-28 21:19:07

Video
ID                               : 2
Format                           : AVC
Format/Info                      : Advanced Video Codec
Format profile                   : Baseline@L3.0
Format settings, CABAC           : No
Format settings, ReFrames        : 2 frames
Codec ID                         : avc1
Codec ID/Info                    : Advanced Video Coding
Duration                         : 11mn 19s
Bit rate mode                    : Variable
Bit rate                         : 1 122 Kbps
Width                            : 640 pixels
Height                           : 360 pixels
Display aspect ratio             : 16:9
Frame rate mode                  : Constant
Frame rate                       : 29.970 fps
Color space                      : YUV
Chroma subsampling               : 4:2:0
Bit depth                        : 8 bits
Scan type                        : Progressive
Bits/(Pixel*Frame)               : 0.163
Stream size                      : 90.9 MiB (87%)
Language                         : English
Encoded date                     : UTC 2012-06-28 21:18:43
Tagged date                      : UTC 2012-06-28 21:19:07
Color primaries                  : BT.601-6 525, BT.1358 525, BT.1700 NTSC, SMPTE 170M
Transfer characteristics         : BT.709-5, BT.1361
Matrix coefficients              : BT.601-6 525, BT.1358 525, BT.1700 NTSC, SMPTE 170M

Audio
ID                               : 1
Format                           : AAC
Format/Info                      : Advanced Audio Codec
Format version                   : Version 4
Format profile                   : LC
Format settings, SBR             : No
Codec ID                         : 40
Duration                         : 11mn 19s
Bit rate mode                    : Constant
Bit rate                         : 96.0 Kbps
Channel(s)                       : 2 channels
Channel positions                : Front: L R
Sampling rate                    : 44.1 KHz
Stream size                      : 7.66 MiB (7%)
Language                         : English
Encoded date                     : UTC 2012-06-28 21:18:42
Tagged date                      : UTC 2012-06-28 21:19:07



